<svg xmlns="http://www.w3.org/2000/svg" width="206" height="203" viewBox="0 0 154.5 152.25"><defs><clipPath id="a"><path d="M3.086 2.367h147.883V149H3.086Zm0 0"/></clipPath><clipPath id="b"><path d="M97.078 16.047c-3.137-3.211-4.105-3.735-5.45-4.18-1.94-.672-5.073-.894-7.312-1.12-1.867-.15-3.062-.372-5.226-.224-3.356.223-8.953 1.122-13.059 2.313-3.734 1.121-7.09 2.39-10.523 4.328-3.809 2.164-7.91 5.3-11.196 8.211-2.984 2.54-5.374 5-7.984 7.984-2.988 3.36-6.047 7.391-8.66 11.344a99 99 0 0 0-6.941 12.613c-2.086 4.407-3.954 8.809-5.372 13.883-1.64 5.672-3.058 12.313-3.582 18.656-.449 6.57-.671 14.704.747 20.153 1.043 4.031 3.132 7.09 5 10 1.566 2.465 3.359 4.629 5.074 6.418 1.492 1.492 2.539 2.39 4.554 3.734 3.133 2.09 9.028 5.52 13.133 7.164 3.36 1.27 6.196 1.942 9.48 2.387 3.434.45 7.016.672 10.821.3a55.2 55.2 0 0 0 12.984-3.062c5.153-1.863 10.598-4.699 15.899-7.984 6.195-3.805 13.285-9.254 18.656-13.957 4.555-4.031 7.988-7.613 11.867-12.313 4.48-5.3 9.852-12.465 13.137-18.285 2.762-4.777 4.55-8.957 6.047-13.734 1.492-4.852 2.91-10.45 3.058-15.223.149-4.254-.972-9.105-1.64-11.941-.45-1.645-.672-2.614-1.344-3.883-.746-1.418-1.793-2.91-2.988-4.254-1.418-1.492-3.207-2.91-5.149-4.254-2.46-1.715-5.375-3.656-8.582-4.926-3.507-1.343-7.687-2.164-11.718-2.836-4.106-.746-8.059-1.27-12.614-1.418-5.37-.148-12.46.375-17.312.895-3.656.3-7.613 1.941-9.555 1.344-1.043-.371-1.863-1.192-2.09-1.938-.222-.672.227-1.793.598-2.316.3-.297.598-.598 1.047-.672.746 0 2.836.82 3.207 1.57.3.594 0 1.79-.371 2.313-.301.523-.824.82-1.344.968-.598.075-1.793-.074-2.316-.523-.52-.445-.97-1.492-.895-2.164.074-.746.82-1.64 1.344-2.012.449-.226 1.047-.375 1.566-.226.672.148 1.645.746 1.942 1.418.222.597.222 1.718-.149 2.316-.375.594-1.344 1.191-2.015 1.266-.672 0-2.165-.97-2.165-.97s2.313.895 2.239.97c0 0-1.27-.075-1.715-.446-.523-.449-1.047-1.418-1.047-2.09.074-.82 1.418-1.492 1.719-2.39.222-.746-.598-1.715-.074-2.387 1.043-1.344 5.671-1.719 9.402-2.238 5.074-.746 12.312-1.344 18.582-1.047 6.492.3 14.48 1.793 19.555 2.91 3.285.672 5.672 1.344 7.984 2.242 1.867.746 3.285 1.567 4.926 2.536 1.719 1.046 3.508 2.09 5.3 3.507 2.165 1.641 4.778 3.73 6.567 5.899a30.3 30.3 0 0 1 4.031 6.191c.82 1.719 1.117 2.762 1.64 4.852.821 3.582 2.017 9.777 1.794 14.926-.3 5.523-1.867 11.644-3.582 17.093-1.719 5.297-4.031 10.223-6.719 15.075-2.762 5.074-7.164 11.12-9.851 14.628-1.641 2.164-2.461 2.985-4.329 5-3.058 3.36-7.836 8.805-12.761 13.133-5.672 5.004-13.211 10.75-19.852 14.778-5.973 3.585-12.016 6.718-17.762 8.734a61.8 61.8 0 0 1-14.93 3.281c-4.476.45-8.581.227-12.984-.52-4.925-.82-10.523-2.538-15-4.554-4.105-1.863-8.136-4.55-11.12-6.715-2.165-1.644-3.657-2.836-5.45-4.703-2.09-2.164-4.328-5.148-5.969-7.687-1.492-2.165-2.687-4.18-3.66-6.418-1.043-2.165-1.863-4.106-2.46-6.793-.821-3.805-1.048-9.254-1.048-13.954 0-4.777.524-10.226 1.047-14.332.45-3.207.746-5.074 1.715-8.433 1.496-5.52 4.703-14.926 7.54-21.121 2.312-5.149 4.776-9.328 7.612-13.582 2.836-4.18 5.97-8.285 9.18-11.867 2.984-3.282 5.82-6.118 9.254-8.954 3.805-3.136 7.984-6.496 12.687-8.882 5.075-2.614 11.645-4.778 16.942-5.895 4.476-.973 8.808-1.195 12.836-.973 3.656.075 7.761.746 10.375 1.645 1.793.52 2.91 1.191 4.254 2.09 1.492 1.043 3.507 2.238 4.328 3.804.82 1.567 1.27 4.551.672 5.672-.446.82-1.79 1.344-2.614 1.27-.671-.074-1.863-1.418-1.863-1.418"/></clipPath><clipPath id="d"><path d="M.086.629h147.742V147H.086Zm0 0"/></clipPath><clipPath id="e"><path d="M94.078 14.047c-3.137-3.211-4.105-3.735-5.45-4.18-1.94-.672-5.073-.894-7.312-1.12-1.867-.15-3.062-.372-5.226-.224-3.356.223-8.953 1.122-13.059 2.313-3.734 1.121-7.09 2.39-10.523 4.328-3.809 2.164-7.91 5.3-11.196 8.211-2.984 2.54-5.374 5-7.984 7.984-2.988 3.36-6.047 7.391-8.66 11.344a99 99 0 0 0-6.941 12.613c-2.086 4.407-3.954 8.809-5.372 13.883-1.64 5.672-3.058 12.313-3.582 18.656-.449 6.57-.671 14.704.747 20.153 1.043 4.031 3.132 7.09 5 10 1.566 2.465 3.359 4.629 5.074 6.418 1.492 1.492 2.539 2.39 4.554 3.734 3.133 2.09 9.028 5.52 13.133 7.164 3.36 1.27 6.196 1.942 9.48 2.387 3.434.45 7.016.672 10.821.3a55.2 55.2 0 0 0 12.984-3.062c5.153-1.863 10.598-4.699 15.899-7.984 6.195-3.805 13.285-9.254 18.656-13.957 4.555-4.031 7.988-7.613 11.867-12.313 4.48-5.3 9.852-12.465 13.137-18.285 2.762-4.777 4.55-8.957 6.047-13.734 1.492-4.852 2.91-10.45 3.058-15.223.149-4.254-.972-9.105-1.64-11.941-.45-1.645-.672-2.614-1.344-3.883-.746-1.418-1.793-2.91-2.988-4.254-1.418-1.492-3.207-2.91-5.149-4.254-2.46-1.715-5.375-3.656-8.582-4.926-3.507-1.343-7.687-2.164-11.718-2.836-4.106-.746-8.059-1.27-12.614-1.418-5.37-.148-12.46.375-17.312.895-3.656.3-7.613 1.941-9.555 1.344-1.043-.371-1.863-1.192-2.09-1.938-.222-.672.227-1.793.598-2.316.3-.297.598-.598 1.047-.672.746 0 2.836.82 3.207 1.57.3.594 0 1.79-.371 2.313-.301.523-.824.82-1.344.968-.598.075-1.793-.074-2.316-.523-.52-.445-.97-1.492-.895-2.164.074-.746.82-1.64 1.344-2.012.449-.226 1.047-.375 1.566-.226.672.148 1.645.746 1.942 1.418.222.597.222 1.718-.149 2.316-.375.594-1.344 1.191-2.015 1.266-.672 0-2.165-.97-2.165-.97s2.313.895 2.239.97c0 0-1.27-.075-1.715-.446-.523-.449-1.047-1.418-1.047-2.09.074-.82 1.418-1.492 1.719-2.39.222-.746-.598-1.715-.074-2.387 1.043-1.344 5.671-1.719 9.402-2.238 5.074-.746 12.312-1.344 18.582-1.047 6.492.3 14.48 1.793 19.555 2.91 3.285.672 5.672 1.344 7.984 2.242 1.867.746 3.285 1.567 4.926 2.536 1.719 1.046 3.508 2.09 5.3 3.507 2.165 1.641 4.778 3.73 6.567 5.899a30.3 30.3 0 0 1 4.031 6.191c.82 1.719 1.117 2.762 1.64 4.852.821 3.582 2.017 9.777 1.794 14.926-.3 5.523-1.867 11.644-3.582 17.093-1.719 5.297-4.031 10.223-6.719 15.075-2.762 5.074-7.164 11.12-9.851 14.628-1.641 2.164-2.461 2.985-4.329 5-3.058 3.36-7.836 8.805-12.761 13.133-5.672 5.004-13.211 10.75-19.852 14.778-5.973 3.585-12.016 6.718-17.762 8.734a61.8 61.8 0 0 1-14.93 3.281c-4.476.45-8.581.227-12.984-.52-4.925-.82-10.523-2.538-15-4.554-4.105-1.863-8.136-4.55-11.12-6.715-2.165-1.644-3.657-2.836-5.45-4.703-2.09-2.164-4.328-5.148-5.969-7.687-1.492-2.165-2.687-4.18-3.66-6.418-1.043-2.165-1.863-4.106-2.46-6.793C.34 105.172.112 99.723.112 95.023c0-4.777.524-10.226 1.047-14.332.45-3.207.746-5.074 1.715-8.433 1.496-5.52 4.703-14.926 7.54-21.121 2.312-5.149 4.776-9.328 7.612-13.582 2.836-4.18 5.97-8.285 9.18-11.867 2.984-3.282 5.82-6.118 9.254-8.954 3.805-3.136 7.984-6.496 12.687-8.882 5.075-2.614 11.645-4.778 16.942-5.895C70.566.984 74.898.762 78.926.984c3.656.075 7.761.746 10.375 1.645 1.793.52 2.91 1.191 4.254 2.09 1.492 1.043 3.507 2.238 4.328 3.804.82 1.567 1.27 4.551.672 5.672-.446.82-1.79 1.344-2.614 1.27-.671-.074-1.863-1.418-1.863-1.418"/></clipPath><clipPath id="c"><path d="M0 0h148v147H0z"/></clipPath><clipPath id="f"><path d="M39.535 44.066h22.242v25.297H39.535Zm0 0"/></clipPath><clipPath id="g"><path d="M57.598 68.66C47.445 60.527 40.73 50.824 39.836 47.766c-.375-1.047-.375-1.72 0-2.391.297-.594 1.266-1.266 1.937-1.266.825 0 2.243.895 2.614 1.567.297.672.148 1.789-.297 2.386-.375.524-1.418 1.047-2.09 1.047s-1.645-.523-2.09-1.12c-.375-.598-.45-1.716-.226-2.313.3-.672 1.046-1.418 1.867-1.567 1.12-.152 2.91.594 4.777 1.938 3.953 2.988 14.477 16.121 15.3 19.777a3.6 3.6 0 0 1-.671 2.836c-.45.45-1.121.598-1.719.598-.523 0-1.64-.598-1.64-.598"/></clipPath><clipPath id="i"><path d="M.535.066h22.242v25.192H.535Zm0 0"/></clipPath><clipPath id="j"><path d="M18.598 24.66C8.445 16.527 1.73 6.824.836 3.766.46 2.719.46 2.046.836 1.375 1.133.781 2.102.109 2.773.109c.825 0 2.243.895 2.614 1.567.297.672.148 1.789-.297 2.387-.375.523-1.418 1.046-2.09 1.046S1.355 4.586.91 3.99C.535 3.39.46 2.272.684 1.675.984 1.004 1.73.258 2.55.109c1.12-.152 2.91.594 4.777 1.938 3.953 2.988 14.477 16.121 15.3 19.777a3.6 3.6 0 0 1-.671 2.836c-.45.45-1.121.598-1.719.598-.523 0-1.64-.598-1.64-.598"/></clipPath><clipPath id="h"><path d="M0 0h23v26H0z"/></clipPath><clipPath id="k"><path d="M37.688 41.68h8.214v25.824h-8.215Zm0 0"/></clipPath><clipPath id="l"><path d="M37.746 64.707c-.375-6.344 1.344-12.465 1.566-15.672.075-2.09-.597-4.105-.3-5.3.152-.672.375-1.044.824-1.419.52-.37 1.64-.746 2.312-.523.747.3 1.79 1.645 1.868 2.39.074.747-.524 1.715-1.121 2.09-.524.446-1.641.594-2.313.297-.672-.222-1.344-1.12-1.57-1.789-.149-.449-.075-1.12.152-1.57.297-.598 1.266-1.266 1.863-1.418.524-.148 1.047-.148 1.57.227 1.118.746 2.684 3.582 3.133 5.894.524 2.836-.523 6.867-1.12 9.926-.446 2.836-1.192 6.418-1.938 7.984-.375.672-.672 1.047-1.195 1.344-.45.3-1.196.375-1.72.227-.593-.075-1.19-.524-1.491-.973-.371-.445-.52-1.715-.52-1.715"/></clipPath><clipPath id="n"><path d="M.688.68h8.214v25.824H.688Zm0 0"/></clipPath><clipPath id="o"><path d="M.746 23.707C.371 17.363 2.09 11.242 2.313 8.035c.074-2.09-.598-4.105-.301-5.3.152-.672.375-1.044.824-1.419.52-.37 1.64-.746 2.312-.523.747.3 1.79 1.644 1.868 2.39.074.747-.524 1.715-1.121 2.09-.524.446-1.641.594-2.313.297-.672-.222-1.344-1.12-1.57-1.789-.149-.449-.075-1.12.152-1.57C2.461 1.613 3.43.945 4.027.793c.524-.148 1.047-.148 1.57.227 1.118.746 2.684 3.582 3.133 5.894.524 2.836-.523 6.867-1.12 9.926-.446 2.836-1.192 6.418-1.938 7.984-.375.672-.672 1.047-1.195 1.344-.45.3-1.196.375-1.72.227-.593-.075-1.19-.524-1.491-.973-.371-.445-.52-1.715-.52-1.715"/></clipPath><clipPath id="m"><path d="M0 0h9v27H0z"/></clipPath><clipPath id="p"><path d="M37.75 43.008h24.484v6.543H37.75Zm0 0"/></clipPath><clipPath id="q"><path d="M40.582 43.438c20.746-.153 21.344.296 21.566.968.227.746-.148 2.387-.746 2.985-.523.449-1.64.672-2.312.449s-1.492-.973-1.64-1.64c-.227-.825.296-2.466.968-2.915.746-.445 2.46-.297 3.059.227.597.597.82 2.312.597 3.058-.148.524-.523.746-1.117 1.121-1.047.598-2.836 1.118-4.852 1.493-3.285.445-10.152.445-13.136.074-1.567-.149-2.688-.45-3.582-.895-.598-.3-1.121-.672-1.344-1.195-.297-.598-.371-1.719 0-2.313.375-.671 2.539-1.417 2.539-1.417"/></clipPath><clipPath id="s"><path d="M.75.008h24.484V6.55H.75Zm0 0"/></clipPath><clipPath id="t"><path d="M3.582.438c20.746-.153 21.344.296 21.566.968.227.746-.148 2.387-.746 2.985-.523.449-1.64.672-2.312.449s-1.492-.973-1.64-1.64c-.227-.825.296-2.466.968-2.915.746-.445 2.46-.297 3.059.227.597.597.82 2.312.597 3.058-.148.524-.523.746-1.117 1.121-1.047.598-2.836 1.118-4.852 1.493-3.285.445-10.152.445-13.136.074-1.567-.149-2.688-.45-3.582-.895-.598-.3-1.121-.672-1.344-1.195-.297-.598-.371-1.719 0-2.313C1.418 1.184 3.582.438 3.582.438"/></clipPath><clipPath id="r"><path d="M0 0h26v7H0z"/></clipPath><clipPath id="u"><path d="M70.871 84.148h21.125v17.137H70.871Zm0 0"/></clipPath><clipPath id="v"><path d="M72.074 85.379c2.09-1.867 5.227-1.043 6.719-.45 1.117.524 1.715 1.122 2.836 1.942 1.715 1.418 4.703 4.031 6.492 6.121 1.492 1.715 3.582 3.656 3.805 5.149.078 1.046-.594 2.39-1.192 2.836-.597.375-1.793.3-2.39.074-.52-.223-.969-.672-1.117-1.192-.223-.671 0-2.39.523-2.988.52-.52 1.64-.746 2.313-.52.671.149 1.566.895 1.789 1.567.152.746-.297 2.387-.895 2.91-.598.45-1.492.45-2.387.297-1.195-.148-2.687-.895-4.18-1.937-2.09-1.418-5.226-4.555-6.718-6.344-.895-1.196-.895-2.614-1.79-3.211-.972-.524-3.062.449-3.882-.074-.598-.371-1.043-1.418-1.043-2.09s1.117-2.09 1.117-2.09"/></clipPath><clipPath id="x"><path d="M.871.148h21.125v17.137H.871Zm0 0"/></clipPath><clipPath id="y"><path d="M2.074 1.379C4.164-.488 7.301.336 8.793.929c1.117.524 1.715 1.122 2.836 1.942 1.715 1.418 4.703 4.031 6.492 6.121 1.492 1.715 3.582 3.656 3.805 5.149.078 1.047-.594 2.39-1.192 2.836-.597.375-1.793.3-2.39.074-.52-.223-.969-.672-1.117-1.192-.223-.671 0-2.39.523-2.988.52-.52 1.64-.746 2.313-.52.671.149 1.566.895 1.789 1.567.152.746-.297 2.387-.895 2.91-.598.45-1.492.45-2.387.297-1.195-.148-2.687-.895-4.18-1.937-2.09-1.418-5.226-4.555-6.718-6.344-.895-1.196-.895-2.614-1.79-3.211C4.91 5.109 2.82 6.082 2 5.559 1.402 5.187.957 4.14.957 3.469s1.117-2.09 1.117-2.09"/></clipPath><clipPath id="w"><path d="M0 0h22v18H0z"/></clipPath><clipPath id="z"><path d="M76.746 87.215h26.035v21.555H76.746Zm0 0"/></clipPath><clipPath id="A"><path d="M79.09 103.367c5.375-1.719 14.258.074 16.27-2.015 1.492-1.567-.15-5.227.226-7.465.371-1.864.894-3.88 1.64-5 .524-.746 1.196-1.344 1.794-1.492.52-.149 1.19-.075 1.64.222.524.301 1.27 1.195 1.418 1.867.074.672-.375 1.715-.82 2.239-.375.375-.899.597-1.492.672-.598 0-1.72-.45-2.164-.97a1.77 1.77 0 0 1-.524-1.491c0-.598.524-1.645.969-2.09.45-.375.973-.598 1.566-.524.746.149 1.793.82 2.39 1.868 1.118 2.312.673 10.074.224 13.28-.297 2.016-.149 3.583-1.493 4.63-2.238 1.867-10.226 1.418-14.18 1.566-2.91.074-5.894.148-7.464-.297-.746-.148-1.192-.375-1.567-.82-.37-.375-.671-1.121-.671-1.645 0-.52.3-1.27.671-1.64.375-.45 1.567-.895 1.567-.895"/></clipPath><clipPath id="C"><path d="M.793.215h25.988V21.77H.793Zm0 0"/></clipPath><clipPath id="D"><path d="M3.09 16.367c5.375-1.719 14.258.074 16.27-2.015 1.492-1.567-.15-5.227.226-7.465.371-1.864.894-3.88 1.64-5C21.75 1.14 22.423.543 23.02.395c.52-.149 1.19-.075 1.64.222.524.301 1.27 1.196 1.418 1.867.074.672-.375 1.715-.82 2.239-.375.375-.899.597-1.492.672-.598 0-1.72-.45-2.164-.97a1.77 1.77 0 0 1-.524-1.491c0-.598.524-1.645.969-2.09.45-.375.973-.598 1.566-.524.746.149 1.793.82 2.39 1.868 1.118 2.312.673 10.074.224 13.28-.297 2.016-.149 3.583-1.493 4.63-2.238 1.867-10.226 1.418-14.18 1.566-2.91.074-5.894.148-7.464-.297-.746-.148-1.192-.375-1.567-.82-.37-.375-.671-1.121-.671-1.645 0-.52.3-1.27.671-1.64.375-.45 1.567-.895 1.567-.895"/></clipPath><clipPath id="B"><path d="M0 0h27v22H0z"/></clipPath></defs><g clip-path="url(#a)"><g clip-path="url(#b)"><g clip-path="url(#c)" transform="translate(3 2)"><g clip-path="url(#d)"><g clip-path="url(#e)"><path fill="#1e1e1e" d="M-36.99-35.495h222.48v219.24H-36.99z"/></g></g></g></g></g><g clip-path="url(#f)"><g clip-path="url(#g)"><g clip-path="url(#h)" transform="translate(39 44)"><g clip-path="url(#i)"><g clip-path="url(#j)"><path fill="#1e1e1e" d="M-72.99-77.495h222.48v219.24H-72.99z"/></g></g></g></g></g><g clip-path="url(#k)"><g clip-path="url(#l)"><g clip-path="url(#m)" transform="translate(37 41)"><g clip-path="url(#n)"><g clip-path="url(#o)"><path fill="#1e1e1e" d="M-70.99-74.495h222.48v219.24H-70.99z"/></g></g></g></g></g><g clip-path="url(#p)"><g clip-path="url(#q)"><g clip-path="url(#r)" transform="translate(37 43)"><g clip-path="url(#s)"><g clip-path="url(#t)"><path fill="#1e1e1e" d="M-70.99-76.495h222.48v219.24H-70.99z"/></g></g></g></g></g><g clip-path="url(#u)"><g clip-path="url(#v)"><g clip-path="url(#w)" transform="translate(70 84)"><g clip-path="url(#x)"><g clip-path="url(#y)"><path fill="#1e1e1e" d="M-103.99-117.495h222.48v219.24h-222.48z"/></g></g></g></g></g><g clip-path="url(#z)"><g clip-path="url(#A)"><g clip-path="url(#B)" transform="translate(76 87)"><g clip-path="url(#C)"><g clip-path="url(#D)"><path fill="#1e1e1e" d="M-109.99-120.495h222.48v219.24h-222.48z"/></g></g></g></g></g></svg>